<?xml version="1.0" standalone="no"?><!DOCTYPE svg PUBLIC "-//W3C//DTD SVG 1.1//EN" "http://www.w3.org/Graphics/SVG/1.1/DTD/svg11.dtd"><svg t="1643243940099" class="icon" viewBox="0 0 1083 1024" version="1.1" xmlns="http://www.w3.org/2000/svg" p-id="3489" width="33.84375" height="32" xmlns:xlink="http://www.w3.org/1999/xlink"><defs><style type="text/css"></style></defs><path d="M745.506276 994.008368H304.200837c-25.707113 0-47.129707-21.422594-47.129707-47.129707V124.251046c0-25.707113 21.422594-47.129707 47.129707-47.129707h441.305439c25.707113 0 47.129707 21.422594 47.129707 47.129707v822.627615c0 25.707113-21.422594 47.129707-47.129707 47.129707z m-218.51046-47.129707c17.138075 0 29.991632-12.853556 29.991632-29.991632 0-17.138075-12.853556-29.991632-29.991632-29.991632-17.138075 0-29.991632 12.853556-29.991632 29.991632-4.284519 17.138075 12.853556 29.991632 29.991632 29.991632zM745.506276 171.380753H304.200837v664.100419h441.305439V171.380753z" fill="#999999" p-id="3490"></path></svg>