<?xml version="1.0" standalone="no"?><!DOCTYPE svg PUBLIC "-//W3C//DTD SVG 1.1//EN" "http://www.w3.org/Graphics/SVG/1.1/DTD/svg11.dtd"><svg t="1643243632736" class="icon" viewBox="0 0 1024 1024" version="1.1" xmlns="http://www.w3.org/2000/svg" p-id="3199" width="128" height="128" xmlns:xlink="http://www.w3.org/1999/xlink"><defs><style type="text/css"></style></defs><path d="M722.260263 1.6577H300.016024A93.263374 93.263374 0 0 0 200.78152 86.959566v849.32225a94.685072 94.685072 0 0 0 99.234504 87.576583h422.244239a94.685072 94.685072 0 0 0 99.518844-87.007904V85.537868a93.263374 93.263374 0 0 0-99.518844-85.301866M458.677496 67.908816h119.138273a18.482071 18.482071 0 0 1 19.619429 17.060373 18.482071 18.482071 0 0 1-19.619429 16.776034H458.677496a18.482071 18.482071 0 0 1-19.903769-16.776034 18.482071 18.482071 0 0 1 19.903769-17.060373m59.711306 919.55412a51.465459 51.465459 0 1 1 0-101.793561 51.465459 51.465459 0 1 1 0 101.793561m255.9056-147.856569H249.403583V164.868604h524.606479z m0 0" p-id="3200" fill="#f29c9f"></path></svg>