<?xml version="1.0" standalone="no"?><!DOCTYPE svg PUBLIC "-//W3C//DTD SVG 1.1//EN" "http://www.w3.org/Graphics/SVG/1.1/DTD/svg11.dtd"><svg t="1643254192360" class="icon" viewBox="0 0 1024 1024" version="1.1" xmlns="http://www.w3.org/2000/svg" p-id="6314" width="16" height="16" xmlns:xlink="http://www.w3.org/1999/xlink"><defs><style type="text/css"></style></defs><path d="M515.70181 733.059722c-22.340821 0-40.449247-18.10331-40.449247-40.442084 0-22.334681 18.108426-40.436968 40.449247-40.436968 22.327518 0 40.436968 18.101263 40.436968 40.436968C556.137755 714.956412 538.029328 733.059722 515.70181 733.059722L515.70181 733.059722zM515.70181 598.823438c-18.685571 0-33.882692-15.196097-33.882692-33.882692L481.819119 311.580365c0-18.676361 15.19712-33.870412 33.882692-33.870412 18.673292 0 33.870412 15.19405 33.870412 33.870412l0 253.359358C549.571199 583.627341 534.375102 598.823438 515.70181 598.823438zM515.69567 564.939723M515.69567 117.207445c-217.58969 0-393.972886 176.386266-393.972886 393.975956 0 217.599923 176.383196 393.988236 393.972886 393.988236 217.582527 0 393.972886-176.388313 393.972886-393.988236C909.668557 293.593711 733.278197 117.207445 515.69567 117.207445zM515.69567 852.643284c-188.272991 0-341.443509-153.172565-341.443509-341.459882 0-188.275038 153.171542-341.446579 341.443509-341.446579 188.271968 0 341.443509 153.171542 341.443509 341.446579C857.13918 699.470719 703.967638 852.643284 515.69567 852.643284z" p-id="6315" fill="#d87171"></path></svg>